<?xml version="1.0" encoding="UTF-8"?><svg id="Warstwa_1" xmlns="http://www.w3.org/2000/svg" viewBox="0 0 500 154.37"><defs><style>.cls-1{fill:#00f3be;}.cls-2{fill:#00cdff;}.cls-3{fill:#ffdc00;}.cls-4{fill:#fb0;}.cls-5{fill:#de1080;}.cls-6{fill:#1195e3;}.cls-7{fill:#ffffff;}.cls-8{fill:#5d079c;}</style></defs><path class="cls-7" d="m123.39,66.87h7.15l11.2,43.56,12.38-43.56h7.52l11.79,43.41,11.28-43.41h7.22l-14.89,51.37h-7.52l-11.94-41.35-12.38,41.35-7.44.07-14.37-51.45Z"/><path class="cls-7" d="m226.94,72.33h-20.93v17.17h18.72v5.53h-18.72v17.69h20.93v5.53h-27.64v-51.45h27.64v5.53Z"/><path class="cls-7" d="m256.27,118.24h-19.16v-51.37h18.43c10.83,0,16.29,5.9,16.29,13.05,0,6.49-4.05,10.25-8.99,11.87,5.6.96,10.17,6.34,10.17,12.68,0,7.74-6.12,13.78-16.73,13.78Zm-1.33-45.84h-11.13v16.66h11.28c6.26,0,9.88-3.1,9.88-8.33s-3.46-8.33-10.02-8.33Zm.52,22.18h-11.65v18.13h11.87c6.63,0,10.61-3.32,10.61-8.92s-4.27-9.21-10.83-9.21Z"/><path class="cls-7" d="m298.57,118.76c-10.32,0-17.62-5.75-17.76-14.22h7.15c.44,4.27,3.46,8.55,10.61,8.55,6.49,0,10.32-3.68,10.32-8.55,0-13.86-27.79-5.01-27.79-24.1,0-8.48,6.85-14.23,17.03-14.23s16.21,5.38,17.03,13.19h-7.37c-.44-3.46-3.68-7.37-9.95-7.44-5.53-.15-9.88,2.73-9.88,8.25,0,13.27,27.71,5.01,27.71,24.03,0,7.3-5.97,14.52-17.1,14.52Z"/><path class="cls-7" d="m353.19,72.33h-20.93v17.17h18.72v5.53h-18.72v17.69h20.93v5.53h-27.64v-51.45h27.64v5.53Z"/><path class="cls-7" d="m403.75,66.8v51.45h-6.71l-26.98-40.91v40.91h-6.71v-51.45h6.71l26.98,40.83v-40.83h6.71Z"/><path class="cls-7" d="m431.46,118.76c-10.32,0-17.62-5.75-17.76-14.22h7.15c.44,4.27,3.46,8.55,10.61,8.55,6.49,0,10.32-3.68,10.32-8.55,0-13.86-27.79-5.01-27.79-24.1,0-8.48,6.85-14.23,17.03-14.23s16.21,5.38,17.03,13.19h-7.37c-.44-3.46-3.68-7.37-9.95-7.44-5.53-.15-9.88,2.73-9.88,8.25,0,13.27,27.71,5.01,27.71,24.03,0,7.3-5.97,14.52-17.1,14.52Z"/><path class="cls-7" d="m488.8,106.82h-22.41l-4.13,11.42h-7.08l18.57-51.08h7.74l18.5,51.08h-7.08l-4.13-11.42Zm-11.2-31.4l-9.29,25.94h18.57l-9.29-25.94Z"/><polygon class="cls-8" points="30.87 92.61 61.74 123.49 61.74 61.74 30.87 92.61"/><polygon class="cls-1" points="92.61 30.87 61.74 0 61.74 61.74 92.61 30.87"/><polygon class="cls-2" points="61.74 61.74 92.62 92.62 92.62 30.87 61.74 61.74"/><polygon class="cls-6" points="92.61 92.62 61.74 61.74 61.74 123.49 92.61 92.62"/><polygon class="cls-3" points="30.87 92.61 0 123.49 30.87 123.49 61.74 123.49 30.87 92.61"/><polygon class="cls-4" points="30.87 154.37 61.74 123.49 30.87 123.49 0 123.49 30.87 154.37"/><polygon class="cls-5" points="61.7 61.79 0 .08 0 123.49 61.7 61.79"/></svg>