<?xml version="1.0" encoding="utf-8"?>
<!-- Generator: Adobe Illustrator 17.0.0, SVG Export Plug-In . SVG Version: 6.00 Build 0)  -->
<!DOCTYPE svg PUBLIC "-//W3C//DTD SVG 1.1//EN" "http://www.w3.org/Graphics/SVG/1.1/DTD/svg11.dtd">
<svg version="1.1" id="Warstwa_1" xmlns="http://www.w3.org/2000/svg" xmlns:xlink="http://www.w3.org/1999/xlink" x="0px" y="0px"
	 width="800px" height="550.88px" viewBox="0 0 800 550.88" enable-background="new 0 0 800 550.88" xml:space="preserve">
<g>
	<path fill="#FFFFFF" d="M453.016,226.515c-2.803-7.037-6.115-13.136-9.937-18.297c-1.529-2.111-1.019-4.926,1.019-6.333
		l0.255-0.235c2.293-1.407,2.803-4.222,1.274-6.333l0,0c-1.529-2.111-4.841-2.815-7.134-1.173
		c-10.701,7.272-27.262,20.173-23.44,30.26c3.057,7.975,6.879,26.272,7.389,36.359c0.51,19.704-3.057,33.544-10.701,40.816
		c-4.586,4.457-10.701,6.568-18.599,6.568c-7.898,0-14.013-2.111-18.599-6.568c-7.644-7.272-11.211-21.111-10.701-40.816
		c0.255-10.321,4.331-28.618,7.389-36.593c3.822-10.087-12.739-22.988-23.695-30.025c-2.293-1.407-5.35-0.938-6.879,1.173l0,0
		c-1.529,2.111-1.019,4.926,1.274,6.333l0.255,0.235c2.293,1.407,2.803,4.457,1.274,6.568c-3.822,5.161-7.134,11.259-9.937,18.297
		c-7.644,19.469-7.898,36.593-1.019,49.729c5.096,9.617,14.013,16.655,26.243,21.111c1.019,0.469,1.784,1.173,2.293,2.111
		c1.784,3.284,4.077,6.099,6.37,8.445c6.624,6.099,15.287,9.383,25.988,9.383c10.701,0,19.364-3.049,25.988-9.383
		c2.548-2.346,4.586-5.161,6.37-8.445c0.51-0.938,1.274-1.642,2.293-2.111c12.23-4.457,21.147-11.494,26.243-21.111
		C460.915,263.108,460.66,245.984,453.016,226.515z M341.42,272.257c-7.134-13.605-3.312-30.729,1.529-42.458
		c2.293-5.63,4.841-10.556,7.644-14.778c1.529-2.346,5.096-2.58,7.134-0.469c2.803,2.815,4.331,5.161,4.077,6.333
		c-2.548,6.803-5.86,19.939-7.134,30.729c-0.255,2.58-3.312,4.222-6.115,3.284l0,0c-2.293-0.938-4.841,0-5.86,2.111l-0.51,1.173
		c-1.019,2.111,0,4.691,2.293,5.395c2.293,0.938,4.331,1.642,6.624,2.346c1.784,0.469,2.803,2.111,3.057,3.753
		c0,2.346,0.255,4.457,0.51,6.568c0.51,3.753-4.841,6.099-7.644,3.284C344.478,276.948,342.694,274.602,341.42,272.257z
		 M444.863,272.257c-1.274,2.58-3.057,4.926-5.096,7.037c-2.803,2.815-7.898,0.704-7.644-3.284c0.255-2.111,0.255-4.222,0.51-6.568
		c0-1.642,1.274-3.049,3.057-3.753c2.293-0.704,4.331-1.407,6.624-2.346c2.293-0.938,3.312-3.284,2.293-5.395l-0.51-1.173
		c-1.019-2.111-3.567-2.815-5.605-2.111c0,0,0,0-0.255,0c-2.803,0.938-5.605-0.704-6.115-3.284
		c-1.529-10.79-4.586-23.692-7.134-30.494c-0.51-1.173,1.019-3.519,3.822-6.568c2.038-2.111,5.605-1.877,7.134,0.469
		c2.803,4.222,5.351,8.914,7.644,14.544C448.175,241.528,452.252,258.417,444.863,272.257z"/>
	<path fill="#FFFFFF" d="M305.241,191.564c-0.255,0.469-0.51,0.938-0.51,1.407c-6.37,16.889-14.523,37.766-14.523,57.001
		c0,64.742,34.651,97.817,102.933,97.817s102.933-32.84,102.933-97.817c0-19.235-7.898-40.112-14.523-57.001
		c-0.255-0.469-0.51-0.938-0.51-1.407 M471.87,195.786c6.115,16.185,14.013,36.359,14.013,53.952
		c0,59.581-30.319,88.434-92.742,88.434S300.4,309.319,300.4,249.738c0-17.593,7.644-37.766,14.013-53.952"/>
	<path fill="#FFFFFF" d="M410.977,216.85L410.977,216.85c1.529-2.346,0.255-5.395-2.293-6.568c-10.446-3.988-20.892-3.988-31.084,0
		c-2.803,1.173-3.822,4.222-2.293,6.568l0,0c1.274,2.111,4.077,3.049,6.624,2.111c7.644-2.815,15.287-2.815,22.931,0
		C407.155,219.665,409.703,218.961,410.977,216.85z"/>
	<rect x="316.467" y="161.956" fill="#FFFFFF" width="153.691" height="12.67"/>
	<path fill="#FFFFFF" d="M478.242,200.078c8.261,0,17.657-10.837,17.657-21.133v-29.261l-11.771-10.837
		c-6.666-41.46-46.084-56.982-90.815-56.982s-84.692,16.648-91.403,56.982l-11.771,10.837v29.261
		c0,10.296,10.095,21.133,17.657,21.133 M301.909,178.945v-24.926l8.24-7.586c0,0,7.431,0,9.056,0s6.247,0.183,6.247-5.315
		s-4.522-5.523-6.247-5.523s-4.936,0-4.936,0c7.108-30.705,41.964-42.894,79.044-42.894s68.765,9.187,79.044,42.894
		c0,0-120.958,0-122.466,0s-6.664-0.097-6.664,5.523s4.939,5.315,6.664,5.315s126.586,0,126.586,0l8.24,7.586v24.926
		c0,5.961-5.297,10.837-11.771,10.837h-5.886H319.566h-5.886C307.206,189.783,301.909,184.906,301.909,178.945z"/>
</g>
<g>
	<g>
		<path fill="#FFFFFF" d="M160.826,393.563c4.735,0,8.533,0.52,11.392,1.559c2.859,1.04,5.053,2.469,6.584,4.288
			c1.53,1.819,2.54,3.956,3.032,6.411c0.49,2.455,0.736,5.126,0.736,8.013c0,2.888-0.26,5.531-0.78,7.927
			c-0.52,2.397-1.546,4.461-3.075,6.194c-1.531,1.732-3.712,3.09-6.541,4.071c-2.83,0.983-6.555,1.473-11.175,1.473H88.491v-16.026
			h72.162c1.27,0,2.266-0.202,2.988-0.606c0.721-0.403,1.256-0.953,1.603-1.646c0.347-0.693,0.563-1.501,0.65-2.426
			c0.087-0.923,0.13-1.906,0.13-2.945H106.25c-4.563,0-8.26-0.49-11.089-1.473c-2.83-0.981-5.039-2.352-6.627-4.115
			c-1.589-1.761-2.672-3.868-3.248-6.324c-0.578-2.454-0.866-5.124-0.866-8.013c0-3.119,0.202-5.934,0.606-8.446
			c0.403-2.512,1.343-4.648,2.815-6.41c1.473-1.761,3.667-3.132,6.584-4.115c2.915-0.981,6.857-1.472,11.825-1.472h71.989v16.286
			h-76.32c0,0.866,0.028,1.748,0.087,2.642c0.057,0.896,0.216,1.732,0.476,2.512s0.678,1.416,1.256,1.906
			c0.577,0.491,1.415,0.737,2.513,0.737H160.826z"/>
		<path fill="#FFFFFF" d="M281.066,414.094c0,3.119-0.491,5.877-1.472,8.273c-0.983,2.397-2.354,4.418-4.115,6.064
			c-1.762,1.646-3.898,2.902-6.411,3.768c-2.512,0.866-5.299,1.3-8.36,1.3h-49.465c-3.004,0-5.747-0.447-8.23-1.343
			c-2.484-0.895-4.635-2.179-6.454-3.855c-1.819-1.674-3.235-3.71-4.245-6.107c-1.011-2.396-1.516-5.096-1.516-8.1v-26.249
			c0.23-2.599,0.88-5.024,1.949-7.276c1.068-2.253,2.497-4.202,4.288-5.848c1.789-1.646,3.884-2.945,6.281-3.898
			c2.396-0.953,5.068-1.429,8.013-1.429h49.378c3.349,0,6.294,0.506,8.836,1.516c2.54,1.011,4.663,2.412,6.367,4.201
			c1.703,1.791,2.989,3.928,3.855,6.411c0.866,2.484,1.299,5.228,1.299,8.23V414.094z M264.347,391.223
			c0-0.693-0.03-1.356-0.087-1.992c-0.058-0.635-0.203-1.198-0.433-1.689c-0.231-0.49-0.593-0.895-1.083-1.213
			c-0.491-0.317-1.169-0.476-2.036-0.476h-49.465c-0.983,0-1.733,0.117-2.253,0.347c-0.519,0.232-0.91,0.549-1.169,0.953
			c-0.26,0.404-0.404,0.852-0.433,1.343c-0.03,0.491-0.043,0.996-0.043,1.516v21.311c0,1.559,0.216,2.845,0.65,3.855
			c0.433,1.011,1.486,1.516,3.162,1.516h49.378c0.923,0,1.646-0.13,2.166-0.39c0.519-0.26,0.91-0.592,1.169-0.997
			c0.26-0.403,0.403-0.88,0.433-1.429c0.028-0.548,0.043-1.111,0.043-1.689V391.223z"/>
		<path fill="#FFFFFF" d="M305.148,433.499h-15.42v-46.953c0-2.079,0.39-4.143,1.169-6.194c0.779-2.049,1.863-3.883,3.248-5.501
			c1.386-1.616,3.017-2.931,4.895-3.941c1.876-1.01,3.912-1.516,6.107-1.516c2.252,0,4.332,0.549,6.237,1.646
			c1.906,1.098,3.638,2.484,5.198,4.158c1.559,1.676,2.931,3.523,4.115,5.545c1.183,2.022,2.151,3.956,2.902,5.804l13.341,32.486
			l13.601-32.486c0.75-1.848,1.703-3.782,2.859-5.804c1.155-2.021,2.512-3.869,4.072-5.545c1.559-1.674,3.292-3.06,5.198-4.158
			c1.906-1.096,4.013-1.646,6.324-1.646c2.309,0,4.432,0.476,6.367,1.429c1.934,0.953,3.565,2.224,4.895,3.812
			c1.328,1.589,2.367,3.422,3.119,5.501c0.75,2.079,1.126,4.216,1.126,6.411v46.953h-15.507v-46.953l-15.333,33.525
			c-1.04,2.311-2.066,4.405-3.076,6.281c-1.011,1.877-2.137,3.465-3.379,4.764c-1.243,1.3-2.685,2.296-4.332,2.989
			c-1.646,0.693-3.625,1.04-5.934,1.04c-2.022,0-3.87-0.448-5.545-1.343c-1.676-0.895-3.205-2.049-4.591-3.465
			c-1.386-1.414-2.614-3.032-3.682-4.851c-1.069-1.819-2.007-3.652-2.815-5.501l-15.16-33.439V433.499z"/>
		<path fill="#FFFFFF" d="M467.107,393.563c4.735,0,8.533,0.52,11.392,1.559c2.859,1.04,5.053,2.469,6.584,4.288
			c1.53,1.819,2.54,3.956,3.032,6.411c0.49,2.455,0.736,5.126,0.736,8.013c0,2.888-0.26,5.531-0.78,7.927
			c-0.52,2.397-1.546,4.461-3.075,6.194c-1.531,1.732-3.712,3.09-6.541,4.071c-2.83,0.983-6.555,1.473-11.175,1.473h-72.508v-16.026
			h72.162c1.27,0,2.266-0.202,2.988-0.606c0.721-0.403,1.256-0.953,1.603-1.646c0.347-0.693,0.563-1.501,0.65-2.426
			c0.087-0.923,0.13-1.906,0.13-2.945h-59.774c-4.563,0-8.26-0.49-11.089-1.473c-2.83-0.981-5.039-2.352-6.627-4.115
			c-1.589-1.761-2.672-3.868-3.248-6.324c-0.578-2.454-0.866-5.124-0.866-8.013c0-3.119,0.202-5.934,0.606-8.446
			c0.403-2.512,1.343-4.648,2.815-6.41c1.473-1.761,3.667-3.132,6.584-4.115c2.915-0.981,6.857-1.472,11.825-1.472h71.989v16.286
			H408.2c0,0.866,0.028,1.748,0.087,2.642c0.057,0.896,0.216,1.732,0.476,2.512c0.26,0.78,0.678,1.416,1.256,1.906
			c0.577,0.491,1.415,0.737,2.513,0.737H467.107z"/>
		<path fill="#FFFFFF" d="M514.839,369.393v64.106h-17.846v-64.106H514.839z"/>
		<path fill="#FFFFFF" d="M523.017,383.514c0-2.772,0.447-5.125,1.343-7.061c0.895-1.934,2.108-3.479,3.638-4.635
			c1.53-1.155,3.262-1.992,5.198-2.512c1.934-0.52,3.942-0.78,6.02-0.78c4.678,0,9.066,2.022,13.168,6.064l59.861,58.908h-25.383
			l-16.373-16.46h-31.273v16.46h-16.2v-49.812V383.514z M539.216,403.265h17.499l-17.499-17.586V403.265z"/>
		<path fill="#FFFFFF" d="M616.576,369.393h69.91c3.002,0,5.761,0.448,8.273,1.343c2.512,0.896,4.678,2.181,6.497,3.855
			c1.819,1.676,3.234,3.712,4.245,6.107c1.01,2.397,1.516,5.098,1.516,8.1v26.249c-0.232,2.599-0.866,5.025-1.906,7.277
			c-1.04,2.253-2.456,4.202-4.245,5.848c-1.791,1.646-3.885,2.945-6.281,3.898c-2.397,0.953-5.068,1.429-8.013,1.429h-69.996
			V369.393z M633.035,417.039h53.537c0.981,0,1.733-0.115,2.252-0.347c0.52-0.23,0.91-0.548,1.17-0.953
			c0.26-0.403,0.403-0.851,0.433-1.343c0.029-0.49,0.044-0.996,0.044-1.516V391.57c0-1.559-0.216-2.844-0.65-3.855
			c-0.433-1.01-1.488-1.516-3.162-1.516h-53.623V417.039z"/>
	</g>
	<g>
		<path fill="#FFFFFF" d="M88.591,453.804l0.756-0.972c0.679,0.756,1.789,1.465,3.239,1.465c1.835,0,2.421-0.987,2.421-1.774
			c0-2.653-6.092-1.188-6.092-4.858c0-1.697,1.511-2.853,3.532-2.853c1.573,0,2.792,0.524,3.655,1.434l-0.771,0.941
			c-0.771-0.848-1.851-1.234-2.977-1.234c-1.234,0-2.113,0.663-2.113,1.635c0,2.314,6.092,0.987,6.092,4.828
			c0,1.496-1.018,3.023-3.794,3.023C90.751,455.439,89.44,454.76,88.591,453.804z"/>
		<path fill="#FFFFFF" d="M100.699,455.254v-9.146h-3.255v-1.141h7.805v1.141h-3.27v9.146H100.699z"/>
		<path fill="#FFFFFF" d="M106.946,451.259v-6.293h1.28v6.262c0,1.882,1.018,3.069,2.915,3.069s2.915-1.188,2.915-3.069v-6.262h1.28
			v6.277c0,2.56-1.403,4.195-4.195,4.195C108.349,455.439,106.946,453.789,106.946,451.259z"/>
		<path fill="#FFFFFF" d="M117.742,455.254v-10.288h3.517c3.193,0,5.275,2.236,5.275,5.152c0,2.931-2.082,5.136-5.275,5.136H117.742
			z M125.207,450.118c0-2.221-1.403-4.01-3.948-4.01h-2.236v8.005h2.236C123.757,454.112,125.207,452.323,125.207,450.118z"/>
		<path fill="#FFFFFF" d="M128.539,455.254v-10.288h6.74v1.141h-5.46v3.316h5.352v1.142h-5.352v3.547h5.46v1.142H128.539z"/>
		<path fill="#FFFFFF" d="M144.595,455.254l-5.999-8.205v8.205h-1.28v-10.288h1.311l5.923,8.036v-8.036h1.28v10.288H144.595z"/>
		<path fill="#FFFFFF" d="M147.818,450.118c0-3.162,2.329-5.321,5.29-5.321c1.82,0,3.085,0.879,3.902,2.036l-1.079,0.602
			c-0.586-0.864-1.651-1.496-2.823-1.496c-2.252,0-3.964,1.727-3.964,4.18c0,2.437,1.712,4.18,3.964,4.18
			c1.172,0,2.236-0.617,2.823-1.496l1.095,0.602c-0.864,1.172-2.098,2.036-3.918,2.036
			C150.147,455.439,147.818,453.28,147.818,450.118z"/>
		<path fill="#FFFFFF" d="M164.877,455.254l-3.902-4.627l-1.033,1.172v3.455h-1.28v-10.288h1.28v5.321l4.55-5.321h1.604
			l-4.288,4.889l4.658,5.398H164.877z"/>
		<path fill="#FFFFFF" d="M175.272,455.254l-0.91-2.283h-5.12l-0.91,2.283h-1.465L171,444.966h1.589l4.149,10.288H175.272z
			 M171.802,446.293l-2.19,5.537h4.365L171.802,446.293z"/>
		<path fill="#FFFFFF" d="M181.642,450.118c0-3.039,2.051-5.321,5.105-5.321c3.039,0,5.105,2.283,5.105,5.321
			c0,3.038-2.067,5.321-5.105,5.321C183.693,455.439,181.642,453.156,181.642,450.118z M190.526,450.118
			c0-2.406-1.481-4.18-3.779-4.18c-2.314,0-3.779,1.774-3.779,4.18c0,2.391,1.465,4.18,3.779,4.18
			C189.045,454.297,190.526,452.508,190.526,450.118z"/>
		<path fill="#FFFFFF" d="M199.811,455.254l-2.622-4.087h-2.051v4.087h-1.28v-10.288h4.134c1.881,0,3.223,1.203,3.223,3.1
			c0,1.851-1.265,2.869-2.668,2.992l2.776,4.195H199.811z M199.888,448.066c0-1.157-0.833-1.959-2.051-1.959h-2.699v3.933h2.699
			C199.055,450.041,199.888,449.223,199.888,448.066z"/>
		<path fill="#FFFFFF" d="M202.818,450.118c0-3.193,2.36-5.321,5.29-5.321c1.82,0,3.085,0.802,3.994,1.928l-1.018,0.632
			c-0.648-0.833-1.743-1.419-2.977-1.419c-2.252,0-3.964,1.727-3.964,4.18c0,2.437,1.712,4.195,3.964,4.195
			c1.234,0,2.252-0.602,2.761-1.111v-2.097h-3.532v-1.142h4.812v3.717c-0.956,1.064-2.36,1.773-4.041,1.773
			C205.178,455.454,202.818,453.31,202.818,450.118z"/>
		<path fill="#FFFFFF" d="M221.528,455.254l-0.91-2.283h-5.12l-0.91,2.283h-1.465l4.134-10.288h1.589l4.149,10.288H221.528z
			 M218.057,446.293l-2.19,5.537h4.365L218.057,446.293z"/>
		<path fill="#FFFFFF" d="M231.614,455.254l-5.999-8.205v8.205h-1.28v-10.288h1.311l5.923,8.036v-8.036h1.28v10.288H231.614z"/>
		<path fill="#FFFFFF" d="M235.255,455.254v-10.288h1.28v10.288H235.255z"/>
		<path fill="#FFFFFF" d="M238.478,455.254v-1.064l5.784-8.082h-5.784v-1.141h7.419v1.064l-5.784,8.082h5.892v1.142H238.478z"/>
		<path fill="#FFFFFF" d="M255.305,455.254l-0.91-2.283h-5.12l-0.91,2.283h-1.465l4.134-10.288h1.589l4.149,10.288H255.305z
			 M251.835,446.293l-2.19,5.537h4.365L251.835,446.293z"/>
		<path fill="#FFFFFF" d="M257.125,450.118c0-3.162,2.329-5.321,5.29-5.321c1.82,0,3.085,0.879,3.902,2.036l-1.079,0.602
			c-0.586-0.864-1.651-1.496-2.823-1.496c-2.252,0-3.964,1.727-3.964,4.18c0,2.437,1.712,4.18,3.964,4.18
			c1.172,0,2.236-0.617,2.823-1.496l1.095,0.602c-0.864,1.172-2.097,2.036-3.917,2.036
			C259.454,455.439,257.125,453.28,257.125,450.118z"/>
		<path fill="#FFFFFF" d="M266.934,454.251l0.663-0.971c0.448,0.54,1.049,1.018,1.943,1.018c1.265,0,2.067-0.879,2.067-2.159v-7.172
			h1.28v7.187c0,2.237-1.434,3.285-3.27,3.285C268.523,455.439,267.644,455.084,266.934,454.251z"/>
		<path fill="#FFFFFF" d="M282.235,455.254l-0.91-2.283h-5.12l-0.91,2.283h-1.465l4.134-10.288h1.589l4.149,10.288H282.235z
			 M278.764,446.293l-2.19,5.537h4.365L278.764,446.293z"/>
		<path fill="#FFFFFF" d="M297.813,455.254v-8.468l-3.501,8.468h-0.524l-3.486-8.468v8.468h-1.28v-10.288h1.835l3.193,7.743
			l3.208-7.743h1.835v10.288H297.813z"/>
		<path fill="#FFFFFF" d="M301.499,455.254v-10.288h1.28v10.288H301.499z"/>
		<path fill="#FFFFFF" d="M304.136,450.735l1.342-0.771v-4.997h1.28v4.257l1.496-0.864v1.11l-1.496,0.864v3.778h4.782v1.142h-6.061
			v-4.18l-1.342,0.771V450.735z"/>
		<path fill="#FFFFFF" d="M312.403,450.118c0-3.039,2.051-5.321,5.105-5.321c3.039,0,5.105,2.283,5.105,5.321
			c0,3.038-2.067,5.321-5.105,5.321C314.454,455.439,312.403,453.156,312.403,450.118z M321.287,450.118
			c0-2.406-1.481-4.18-3.779-4.18c-2.313,0-3.779,1.774-3.779,4.18c0,2.391,1.465,4.18,3.779,4.18
			C319.807,454.297,321.287,452.508,321.287,450.118z"/>
		<path fill="#FFFFFF" d="M324.001,453.804l0.756-0.972c0.679,0.756,1.789,1.465,3.239,1.465c1.835,0,2.421-0.987,2.421-1.774
			c0-2.653-6.092-1.188-6.092-4.858c0-1.697,1.511-2.853,3.532-2.853c1.573,0,2.792,0.524,3.655,1.434l-0.771,0.941
			c-0.771-0.848-1.851-1.234-2.977-1.234c-1.234,0-2.113,0.663-2.113,1.635c0,2.314,6.092,0.987,6.092,4.828
			c0,1.496-1.018,3.023-3.794,3.023C326.161,455.439,324.85,454.76,324.001,453.804z M327.904,444.102h-0.879l2.283-2.221h1.203
			L327.904,444.102z"/>
		<path fill="#FFFFFF" d="M340.937,455.254l-5.999-8.205v8.205h-1.28v-10.288h1.311l5.923,8.036v-8.036h1.28v10.288H340.937z"/>
		<path fill="#FFFFFF" d="M344.577,455.254v-10.288h1.28v10.288H344.577z"/>
		<path fill="#FFFFFF" d="M354.479,455.254l-3.902-4.627l-1.033,1.172v3.455h-1.28v-10.288h1.28v5.321l4.55-5.321h1.604
			l-4.288,4.889l4.658,5.398H354.479z"/>
		<path fill="#FFFFFF" d="M356.284,450.118c0-3.039,2.051-5.321,5.105-5.321c3.039,0,5.105,2.283,5.105,5.321
			c0,3.038-2.067,5.321-5.105,5.321C358.335,455.439,356.284,453.156,356.284,450.118z M365.168,450.118
			c0-2.406-1.481-4.18-3.779-4.18c-2.313,0-3.779,1.774-3.779,4.18c0,2.391,1.465,4.18,3.779,4.18
			C363.687,454.297,365.168,452.508,365.168,450.118z M361.404,444.102h-0.879l2.283-2.221h1.203L361.404,444.102z"/>
		<path fill="#FFFFFF" d="M376.057,455.254l-2.267-8.298l-2.267,8.298h-1.388l-2.931-10.288h1.419l2.283,8.576l2.36-8.576h1.064
			l2.36,8.576l2.267-8.576h1.419l-2.931,10.288H376.057z"/>
		<path fill="#FFFFFF" d="M385.172,453.804l0.756-0.972c0.679,0.756,1.789,1.465,3.239,1.465c1.835,0,2.421-0.987,2.421-1.774
			c0-2.653-6.092-1.188-6.092-4.858c0-1.697,1.511-2.853,3.532-2.853c1.573,0,2.792,0.524,3.655,1.434l-0.771,0.941
			c-0.771-0.848-1.851-1.234-2.977-1.234c-1.234,0-2.113,0.663-2.113,1.635c0,2.314,6.092,0.987,6.092,4.828
			c0,1.496-1.018,3.023-3.794,3.023C387.332,455.439,386.021,454.76,385.172,453.804z"/>
		<path fill="#FFFFFF" d="M394.365,455.254v-1.064l5.784-8.082h-5.784v-1.141h7.419v1.064L396,454.112h5.891v1.142H394.365z"/>
		<path fill="#FFFFFF" d="M406.395,455.254v-9.146h-3.255v-1.141h7.805v1.141h-3.27v9.146H406.395z"/>
		<path fill="#FFFFFF" d="M412.642,451.259v-6.293h1.28v6.262c0,1.882,1.018,3.069,2.915,3.069c1.897,0,2.915-1.188,2.915-3.069
			v-6.262h1.28v6.277c0,2.56-1.403,4.195-4.195,4.195C414.046,455.439,412.642,453.789,412.642,451.259z"/>
		<path fill="#FFFFFF" d="M423.022,450.118c0-3.162,2.329-5.321,5.29-5.321c1.82,0,3.085,0.879,3.902,2.036l-1.079,0.602
			c-0.586-0.864-1.651-1.496-2.823-1.496c-2.252,0-3.964,1.727-3.964,4.18c0,2.437,1.712,4.18,3.964,4.18
			c1.172,0,2.236-0.617,2.823-1.496l1.095,0.602c-0.864,1.172-2.098,2.036-3.918,2.036
			C425.351,455.439,423.022,453.28,423.022,450.118z"/>
		<path fill="#FFFFFF" d="M433.402,455.254v-1.064l5.784-8.082h-5.784v-1.141h7.419v1.064l-5.784,8.082h5.892v1.142H433.402z"/>
		<path fill="#FFFFFF" d="M450.167,455.254l-5.999-8.205v8.205h-1.28v-10.288h1.311l5.923,8.036v-8.036h1.28v10.288H450.167z"/>
		<path fill="#FFFFFF" d="M453.807,455.254v-10.288h6.74v1.141h-5.46v3.316h5.352v1.142h-5.352v3.547h5.46v1.142H453.807z"/>
		<path fill="#FFFFFF" d="M461.55,454.251l0.663-0.971c0.448,0.54,1.049,1.018,1.943,1.018c1.265,0,2.067-0.879,2.067-2.159v-7.172
			h1.28v7.187c0,2.237-1.434,3.285-3.27,3.285C463.139,455.439,462.26,455.084,461.55,454.251z"/>
		<path fill="#FFFFFF" d="M473.889,455.254v-10.288h1.28v10.288H473.889z"/>
		<path fill="#FFFFFF" d="M484.855,455.254l-5.999-8.205v8.205h-1.28v-10.288h1.311l5.923,8.036v-8.036h1.28v10.288H484.855z"/>
		<path fill="#FFFFFF" d="M491.04,455.254v-9.146h-3.255v-1.141h7.805v1.141h-3.27v9.146H491.04z"/>
		<path fill="#FFFFFF" d="M497.286,455.254v-10.288h6.74v1.141h-5.46v3.316h5.352v1.142h-5.352v3.547h5.46v1.142H497.286z"/>
		<path fill="#FFFFFF" d="M506.062,455.254v-10.288h1.28v9.146h4.781v1.142H506.062z"/>
		<path fill="#FFFFFF" d="M513.928,455.254v-10.288h1.28v10.288H513.928z"/>
		<path fill="#FFFFFF" d="M517.198,450.118c0-3.193,2.36-5.321,5.29-5.321c1.82,0,3.085,0.802,3.994,1.928l-1.018,0.632
			c-0.648-0.833-1.743-1.419-2.977-1.419c-2.252,0-3.964,1.727-3.964,4.18c0,2.437,1.712,4.195,3.964,4.195
			c1.234,0,2.252-0.602,2.761-1.111v-2.097h-3.532v-1.142h4.812v3.717c-0.956,1.064-2.36,1.773-4.041,1.773
			C519.558,455.454,517.198,453.31,517.198,450.118z"/>
		<path fill="#FFFFFF" d="M528.612,455.254v-10.288h6.74v1.141h-5.46v3.316h5.352v1.142h-5.352v3.547h5.46v1.142H528.612z"/>
		<path fill="#FFFFFF" d="M544.667,455.254l-6-8.205v8.205h-1.28v-10.288h1.311l5.923,8.036v-8.036h1.28v10.288H544.667z"/>
		<path fill="#FFFFFF" d="M547.891,450.118c0-3.162,2.329-5.321,5.29-5.321c1.82,0,3.085,0.879,3.902,2.036l-1.079,0.602
			c-0.586-0.864-1.651-1.496-2.823-1.496c-2.252,0-3.964,1.727-3.964,4.18c0,2.437,1.712,4.18,3.964,4.18
			c1.172,0,2.236-0.617,2.823-1.496l1.095,0.602c-0.864,1.172-2.098,2.036-3.918,2.036
			C550.22,455.439,547.891,453.28,547.891,450.118z"/>
		<path fill="#FFFFFF" d="M557.7,454.251l0.663-0.971c0.448,0.54,1.049,1.018,1.943,1.018c1.265,0,2.067-0.879,2.067-2.159v-7.172
			h1.28v7.187c0,2.237-1.434,3.285-3.27,3.285C559.289,455.439,558.409,455.084,557.7,454.251z"/>
		<path fill="#FFFFFF" d="M566.06,455.254v-10.288h1.28v10.288H566.06z"/>
		<path fill="#FFFFFF" d="M573.725,455.254v-10.288h1.28v10.288H573.725z"/>
		<path fill="#FFFFFF" d="M588.732,455.254l-0.91-2.283h-5.12l-0.91,2.283h-1.465l4.134-10.288h1.589l4.149,10.288H588.732z
			 M585.262,446.293l-2.19,5.537h4.365L585.262,446.293z"/>
		<path fill="#FFFFFF" d="M598.819,455.254l-6-8.205v8.205h-1.28v-10.288h1.311l5.923,8.036v-8.036h1.28v10.288H598.819z"/>
		<path fill="#FFFFFF" d="M609.801,455.254l-0.91-2.283h-5.12l-0.91,2.283h-1.465l4.134-10.288h1.589l4.149,10.288H609.801z
			 M606.331,446.293l-2.19,5.537h4.365L606.331,446.293z"/>
		<path fill="#FFFFFF" d="M612.608,455.254v-10.288h1.28v9.146h4.781v1.142H612.608z"/>
		<path fill="#FFFFFF" d="M620.474,455.254v-10.288h1.28v10.288H620.474z"/>
		<path fill="#FFFFFF" d="M623.698,455.254v-1.064l5.784-8.082h-5.784v-1.141h7.419v1.064l-5.784,8.082h5.892v1.142H623.698z"/>
		<path fill="#FFFFFF" d="M636.175,455.254v-4.35l-4.056-5.938h1.496l3.193,4.781l3.193-4.781h1.496l-4.041,5.938v4.35H636.175z"/>
		<path fill="#FFFFFF" d="M646.817,455.254v-10.288h3.517c3.193,0,5.275,2.236,5.275,5.152c0,2.931-2.082,5.136-5.275,5.136H646.817
			z M654.282,450.118c0-2.221-1.403-4.01-3.948-4.01h-2.236v8.005h2.236C652.832,454.112,654.282,452.323,654.282,450.118z"/>
		<path fill="#FFFFFF" d="M664.385,455.254l-0.91-2.283h-5.12l-0.91,2.283h-1.465l4.134-10.288h1.589l4.149,10.288H664.385z
			 M660.914,446.293l-2.19,5.537h4.365L660.914,446.293z"/>
		<path fill="#FFFFFF" d="M674.472,455.254l-5.999-8.205v8.205h-1.28v-10.288h1.311l5.923,8.036v-8.036h1.28v10.288H674.472z"/>
		<path fill="#FFFFFF" d="M681.104,455.254v-4.35l-4.056-5.938h1.496l3.193,4.781l3.193-4.781h1.496l-4.041,5.938v4.35H681.104z"/>
		<path fill="#FFFFFF" d="M686.734,450.118c0-3.162,2.329-5.321,5.29-5.321c1.82,0,3.085,0.879,3.902,2.036l-1.08,0.602
			c-0.586-0.864-1.651-1.496-2.823-1.496c-2.252,0-3.964,1.727-3.964,4.18c0,2.437,1.712,4.18,3.964,4.18
			c1.172,0,2.236-0.617,2.823-1.496l1.095,0.602c-0.864,1.172-2.097,2.036-3.917,2.036
			C689.063,455.439,686.734,453.28,686.734,450.118z"/>
		<path fill="#FFFFFF" d="M704.872,455.254v-4.72h-6.015v4.72h-1.28v-10.288h1.28v4.426h6.015v-4.426h1.28v10.288H704.872z"/>
	</g>
</g>
</svg>
