<?xml version="1.0" encoding="UTF-8" standalone="no"?><!DOCTYPE svg PUBLIC "-//W3C//DTD SVG 1.1//EN" "http://www.w3.org/Graphics/SVG/1.1/DTD/svg11.dtd"><svg width="100%" height="100%" viewBox="0 0 480 480" version="1.1" xmlns="http://www.w3.org/2000/svg" xmlns:xlink="http://www.w3.org/1999/xlink" xml:space="preserve" xmlns:serif="http://www.serif.com/" style="fill-rule:evenodd;clip-rule:evenodd;stroke-linejoin:round;stroke-miterlimit:2;"><rect id="favicon" x="0" y="0" width="480" height="480" style="fill:none;"/><path id="_4-e" serif:id="4 e" d="M291.592,106.124l-205.986,19.388l-0,-16.679l-37.167,-21.459l-4.14,-2.39l-41.308,23.849l0,47.697l41.308,23.849l26.527,-15.316l78.978,58.214l-0,43.771l22.704,13.109l-18.605,69.607l-3.63,-2.096l-41.347,23.871l-0,47.743l41.347,23.872l41.346,-23.872l0,-29.005l197.025,-66.082l42,24.249l46.272,-26.716l0,-53.431l-42.132,-24.325l-4.14,-2.39l-13.204,7.623l-58.597,-106.756l12.773,-7.375l-0,-46.201l-35.872,-20.711l-4.14,-2.39l-40.012,23.101l0,17.251Zm-141.319,260.665l24.786,14.311c0,0 0,28.621 0,28.621c0,0 -24.786,14.311 -24.786,14.311c-0,0 -24.787,-14.311 -24.787,-14.311c-0,0 -0,-28.621 -0,-28.621l24.787,-14.311Zm81.783,-106.143l-0,6.402l-41.126,23.744l-3.572,-2.062l-18.605,69.607l22.866,13.202l0,1.271l192.752,-64.648l0,-14.66l-152.315,-32.856Zm198.588,0.058l29.712,17.154c0,0 0,34.309 0,34.309c0,0 -29.712,17.155 -29.712,17.155c-0,-0 -29.713,-17.155 -29.713,-17.155c0,0 0,-34.309 0,-34.309c0,0 29.713,-17.154 29.713,-17.154l-0,-0Zm-122.423,-116.029l-78.454,73.564l2.289,1.321l-0,24.145l152.315,32.856l0,-8.264l18.724,-10.81l-58.597,-106.756l-12.894,7.444l-23.383,-13.5Zm-117.291,70.263l24.566,14.183c-0,-0 -0,28.366 -0,28.366c-0,0 -24.566,14.184 -24.566,14.184c-0,-0 -24.566,-14.184 -24.566,-14.184c-0,0 -0,-28.366 -0,-28.366l24.566,-14.183Zm100.662,-92.18l-205.986,19.387l-0,13.24l77.021,56.771l28.303,-16.34l4.14,2.39l19.713,11.381l78.454,-73.563l-1.645,-0.95l0,-12.316Zm-247.293,-18.652l24.747,14.287c-0,0 -0,28.576 -0,28.576c-0,0 -24.747,14.288 -24.747,14.288c-0,-0 -24.748,-14.288 -24.748,-14.288c0,0 0,-28.576 0,-28.576c0,0 24.748,-14.287 24.748,-14.287l-0,-0Zm287.305,-19.212l23.452,13.54c-0,-0 -0,27.08 -0,27.08c-0,-0 -23.452,13.539 -23.452,13.539c-0,0 -23.452,-13.539 -23.452,-13.539c0,-0 0,-27.08 0,-27.08l23.452,-13.54Z" style="fill:#e82e89;"/></svg>