<?xml version="1.0" encoding="UTF-8" standalone="no"?><!DOCTYPE svg PUBLIC "-//W3C//DTD SVG 1.1//EN" "http://www.w3.org/Graphics/SVG/1.1/DTD/svg11.dtd"><svg width="100%" height="100%" viewBox="0 0 480 480" version="1.1" xmlns="http://www.w3.org/2000/svg" xmlns:xlink="http://www.w3.org/1999/xlink" xml:space="preserve" xmlns:serif="http://www.serif.com/" style="fill-rule:evenodd;clip-rule:evenodd;stroke-linejoin:round;stroke-miterlimit:2;"><rect id="LOGO_ICON_biale" x="0" y="0" width="480" height="480" style="fill:none;"/><path d="M283.159,236.168l-18.771,0.98l-29.326,-3.423l-18.522,3.168l-1.738,-0l-15.85,26.641l2.684,28.508c0,0 0,77.28 0,77.28l-11.04,0l0,11.04l-11.04,0l0,-11.04l11.04,0l0,-22.08l-11.04,0l0,-44.16l-11.04,0l0,-37.492l1.167,-11.318l3.869,-12.808l-6.119,12.084l-1.61,9.643l-8.749,5.403l-10.638,14.901l0,19.587l11.04,0l0,11.04l11.04,0l0,11.04l8.4,0l0,11.04l-19.44,0l0,-11.04l-22.08,0l0,-22.08l-11.04,0l0,-22.08l0.223,0l-0.223,-0.424l7.279,-19.702l4.561,-4.83c-0,-0 6.625,-10.757 6.625,-10.757l11.767,-9.653l-12.703,8.198l-7.52,10.084l-10.009,5.004l0,11.04l-11.04,0l0,44.16l11.04,0l0,33.12l-11.04,0l0,-33.12l-11.04,0l0,-11.04l-11.04,0l0,-44.16l11.04,0l0,-11.04l11.04,0l0,-11.04l5.52,0c0,0 64.355,-36.776 64.355,-36.776l16.506,-45.983l11.14,-2.762l30.919,-17.989l49.853,-2.349l40.167,33.309l-15.087,24.146l-46.351,5.037l-20.505,-1.916l0.258,2.482l16.653,11.657l37.774,5.118l18.558,3.946l22.135,3.497l4.617,7.543l17.408,0l0,11.04l33.12,0l0,11.04l-55.145,0l-0.055,-11.04l-11.04,0l0,-4.323l-19.44,-2.915l0,-4.717l-15.363,-3.904l-20.78,-1.256l20.682,3.037l12.821,3.038l0,11.04l11.04,0l0,11.04l-11.04,0l0,11.04l-55.2,0l0,-11.04l44.16,0l0,-11.04l-11.04,0l-6.797,-0.674Zm-59.443,111.074l-11.04,0l0,11.04l11.04,0l0,-11.04Zm-110.4,0l-11.04,0l0,11.04l11.04,0l0,-11.04Zm90.96,-11.04l0,11.04l8.4,0l0,-11.04l-8.4,0Zm69.976,-189.238l0,-2.188l5.048,-2.914l5.047,2.914l-0,5.828l-1.622,0.936l7.43,13.537l1.677,-0.968l5.839,3.371l0,6.743l-5.839,3.371l-5.84,-3.371l0,-0.14l-23.604,5.752l-0,3.054l-5.216,3.011l-5.217,-3.011l0,-3.368l-35.048,-11.491l-4.074,2.352l-4.781,-2.76l0,-5.52l4.781,-2.76l3.152,1.821l21.748,-9.043l0,-4.818l5.211,-3.009l5.212,3.009l-0,2.118l26.096,-2.456Zm-17.08,29.273l3.152,1.82c-0,0 -0,3.64 -0,3.64c-0,0 -3.152,1.82 -3.152,1.82c-0,0 -3.153,-1.82 -3.153,-1.82c0,0 0,-3.64 0,-3.64l3.153,-1.82Zm9.515,-9.754l0,0.821l-5.188,2.995l-0.444,-0.256l-1.385,5.253l2.718,1.57l-0,0.845l23.604,-5.752l0,-1.311l-19.305,-4.165Zm-10.376,-1.101l-38.698,0.309l0,0.399l34.342,11.259l0,-0.483l5.217,-3.012l0.645,0.373l1.385,-5.254l-2.891,-1.669l-0,-1.922Zm35.521,1.11l3.775,2.18c0,-0 0,4.359 0,4.359c0,0 -3.775,2.18 -3.775,2.18c-0,0 -3.776,-2.18 -3.776,-2.18c0,0 0,-4.359 0,-4.359l3.776,-2.18Zm-15.493,-14.683l-9.952,9.331l0.3,0.173l0,3.059l19.305,4.164l0,-1.056l2.375,-1.371l-7.43,-13.536l-1.637,0.945l-2.961,-1.709Zm-14.84,8.892l3.124,1.804c0,-0 0,3.607 0,3.607c0,0 -3.124,1.804 -3.124,1.804c-0,0 -3.124,-1.804 -3.124,-1.804c-0,0 -0,-3.607 -0,-3.607l3.124,-1.804Zm-22.722,-6.78l-21.164,8.8l0,0.906l38.698,-0.309l-0,-1.552l-10.009,-7.377l-3.358,1.939l-4.167,-2.407Zm35.475,-4.884l-26.096,2.457l-0,1.697l9.76,7.195l3.583,-2.069l3.021,1.744l9.951,-9.331l-0.219,-0.126l0,-1.567Zm-31.308,-2.361l3.148,1.817c-0,0 -0,3.634 -0,3.634c-0,0 -3.148,1.817 -3.148,1.817c0,0 -3.147,-1.817 -3.147,-1.817c0,0 0,-3.634 0,-3.634l3.147,-1.817Zm36.356,-2.431l2.983,1.723c-0,-0 -0,3.444 -0,3.444c-0,0 -2.983,1.723 -2.983,1.723c-0,-0 -2.984,-1.723 -2.984,-1.723c0,0 0,-3.444 0,-3.444l2.984,-1.723Z" style="fill:#fff;"/><g id="yyyyyyyyyyy-0" serif:id="yyyyyyyyyyy 0"></g><g id="xxxxxxxxxxx-0" serif:id="xxxxxxxxxxx 0"></g><g id="xyxyxyxyxy-1" serif:id="xyxyxyxyxy 1"></g><g id="zzzzzzzzzzzz-0" serif:id="zzzzzzzzzzzz 0"></g><g id="zzzzzzzzzzzz-2" serif:id="zzzzzzzzzzzz 2"></g></svg>