<?xml version="1.0" encoding="UTF-8" standalone="no"?><!DOCTYPE svg PUBLIC "-//W3C//DTD SVG 1.1//EN" "http://www.w3.org/Graphics/SVG/1.1/DTD/svg11.dtd"><svg width="100%" height="100%" viewBox="0 0 480 480" version="1.1" xmlns="http://www.w3.org/2000/svg" xmlns:xlink="http://www.w3.org/1999/xlink" xml:space="preserve" xmlns:serif="http://www.serif.com/" style="fill-rule:evenodd;clip-rule:evenodd;stroke-linejoin:round;stroke-miterlimit:2;"><rect id="LOGO_rozowe" x="0" y="0" width="480" height="480" style="fill:none;"/><path d="M256.731,304.54c5.282,0 8.845,-3.396 8.845,-8.258l0,-0.294l-2.976,0l0,0.252c0,3.605 -1.929,5.575 -5.995,5.575c-4.737,0 -6.707,-2.976 -6.707,-8.049c0,-5.114 1.97,-8.09 6.707,-8.09c4.066,0 5.995,1.97 5.995,5.575l0,0.252l2.976,0l0,-0.294c0,-4.862 -3.563,-8.258 -8.845,-8.258c-6.12,0 -9.809,4.486 -9.809,10.815c0,6.288 3.689,10.774 9.809,10.774Zm-24.23,-0.042c3.941,-0 6.582,-1.886 7.797,-4.276l0.21,0.042l0,3.815l2.725,-0l0,-12.954c0,-4.611 -2.516,-8.174 -8.049,-8.174c-5.366,-0 -8.677,3.438 -8.677,7.755l0,0.336l2.892,-0l0,-0.629c0,-3.312 1.761,-4.779 5.533,-4.779c3.899,-0 5.45,1.467 5.45,5.114l0,1.509l-7.294,1.006c-4.527,0.629 -7.21,2.222 -7.21,5.827c0,3.48 2.85,5.408 6.623,5.408Zm62.713,-0c3.94,-0 6.581,-1.886 7.797,-4.276l0.209,0.042l0,3.815l2.725,-0l0,-12.954c0,-4.611 -2.515,-8.174 -8.049,-8.174c-5.365,-0 -8.677,3.438 -8.677,7.755l0,0.336l2.892,-0l0,-0.629c0,-3.312 1.761,-4.779 5.534,-4.779c3.899,-0 5.45,1.467 5.45,5.114l0,1.509l-7.295,1.006c-4.527,0.629 -7.21,2.222 -7.21,5.827c0,3.48 2.851,5.408 6.624,5.408Zm61.454,0c6.037,0 9.894,-4.485 9.894,-10.773c0,-6.288 -3.857,-10.774 -9.894,-10.774c-6.078,0 -10.06,4.486 -10.06,10.774c0,6.288 3.982,10.773 10.06,10.773Zm-38.692,-0.377c1.509,0 2.809,-0.21 3.522,-0.336l0,-2.431l-2.725,0c-2.683,0 -3.815,-0.545 -3.815,-2.976l0,-12.409l6.54,0l0,-2.599l-6.54,0l0,-5.282l-2.264,0l-0.712,5.282l-3.522,0l0,2.599l3.48,0l0,12.241c0,4.402 2.221,5.911 6.036,5.911Zm55.251,-0.042l0,-11.947c0,-4.612 2.222,-6.54 6.33,-6.54c4.234,0 5.701,1.97 5.701,6.456l0,12.031l2.976,0l0,-12.702c0,-4.988 -2.431,-8.426 -7.755,-8.426c-4.276,0 -6.623,2.515 -7.42,4.695l-0.126,0l0,-4.276l-2.724,0l0,20.709l3.018,0Zm-166.171,0l0,-11.905c0,-4.654 2.179,-6.582 6.33,-6.582c4.192,0 5.701,1.97 5.701,6.456l0,12.031l2.976,0l0,-12.786c0,-4.737 -2.306,-8.342 -7.713,-8.342c-4.192,0 -6.33,2.306 -7.127,4.276l-0.167,0l0,-11.235l-3.019,0l0,28.087l3.019,0Zm65.269,-0l0,-9.306l5.198,-0l6.121,9.306l3.521,-0l-7.21,-10.899l7.378,-9.81l-3.522,-0l-6.288,8.678l-5.198,-0l0,-16.056l-3.018,-0l0,28.087l3.018,-0Zm55.335,-0l0,-11.905c0,-4.654 2.18,-6.582 6.33,-6.582c4.192,-0 5.701,1.97 5.701,6.456l0,12.031l2.976,-0l0,-12.786c0,-4.737 -2.305,-8.342 -7.713,-8.342c-4.192,-0 -6.33,2.306 -7.127,4.276l-0.167,-0l0,-11.235l-3.018,-0l0,28.087l3.018,-0Zm-98.848,-5.198c0,-2.222 1.216,-2.893 4.527,-3.354l7.043,-1.006l0,0.713c0,4.904 -3.479,6.749 -7.043,6.749c-3.185,-0 -4.527,-0.964 -4.527,-3.102Zm62.713,-0c0,-2.222 1.215,-2.893 4.527,-3.354l7.043,-1.006l0,0.713c0,4.904 -3.48,6.749 -7.043,6.749c-3.186,-0 -4.527,-0.964 -4.527,-3.102Zm65.143,2.934c-5.072,-0 -7.084,-2.934 -7.084,-8.09c0,-5.157 2.012,-8.049 7.084,-8.049c4.989,-0 6.959,2.892 6.959,8.049c0,5.156 -1.97,8.09 -6.959,8.09Zm-143.241,-31.179c6.037,-0 9.894,-2.641 9.894,-7.127l0,-0.419l-6.205,-0l0,0.252c0,1.299 -1.09,1.844 -3.605,1.844c-3.437,-0 -4.611,-1.174 -4.737,-4.108l14.463,-0c0.126,-0.713 0.293,-1.928 0.293,-3.102c0,-5.492 -3.731,-9.265 -10.061,-9.265c-6.581,-0 -10.605,4.276 -10.605,11.025c0,6.666 3.311,10.9 10.563,10.9Zm68.708,-0c6.036,-0 9.893,-2.641 9.893,-7.127l0,-0.419l-6.205,-0l0,0.252c0,1.299 -1.089,1.844 -3.605,1.844c-3.437,-0 -4.611,-1.174 -4.737,-4.108l14.463,-0c0.126,-0.713 0.293,-1.928 0.293,-3.102c0,-5.492 -3.731,-9.265 -10.061,-9.265c-6.581,-0 -10.605,4.276 -10.605,11.025c0,6.666 3.311,10.9 10.564,10.9Zm-21.715,-0c5.827,-0 9.055,-2.515 9.055,-6.456c-0,-3.437 -1.845,-5.45 -6.288,-6.288l-3.857,-0.796c-2.515,-0.504 -2.893,-0.797 -2.893,-1.803c-0,-1.006 0.587,-1.551 3.103,-1.551c2.682,-0 3.269,0.754 3.269,2.138l-0,0.587l5.995,-0l-0,-0.587c-0,-4.737 -3.941,-7.169 -9.097,-7.169c-5.994,-0 -9.18,2.767 -9.18,6.666c-0,3.898 2.263,5.659 6.414,6.414l3.185,0.586c2.809,0.503 3.396,0.755 3.396,1.887c-0,1.048 -0.419,1.425 -2.976,1.425c-3.061,-0 -3.983,-0.335 -3.983,-1.886l-0,-0.881l-5.994,-0l-0,0.126c-0,5.114 3.228,7.588 9.851,7.588Zm79.271,-0.419l-0,-3.103l0.209,-0c1.132,2.264 3.647,3.522 6.917,3.522c5.743,-0 8.803,-4.318 8.803,-10.941c-0,-6.666 -3.06,-10.984 -8.845,-10.984c-3.186,-0 -5.449,1.593 -6.413,3.354l-0.252,-0l-0,-9.935l-6.246,-0l-0,28.087l5.827,-0Zm38.524,0.419c6.037,-0 9.894,-2.641 9.894,-7.127l-0,-0.419l-6.205,-0l-0,0.252c-0,1.299 -1.09,1.844 -3.605,1.844c-3.437,-0 -4.611,-1.174 -4.737,-4.108l14.463,-0c0.125,-0.713 0.293,-1.928 0.293,-3.102c-0,-5.492 -3.731,-9.265 -10.061,-9.265c-6.581,-0 -10.605,4.276 -10.605,11.025c-0,6.666 3.311,10.9 10.563,10.9Zm-145.42,-0.419l-0,-11.948c-0,-3.186 1.299,-4.15 4.317,-4.15c3.186,-0 4.15,1.048 4.15,3.983l-0,12.115l6.288,-0l-0,-13.373c-0,-4.485 -2.347,-8.133 -7.839,-8.133c-3.689,-0 -5.952,1.719 -7.084,4.109l-0.252,-0l-0,-3.689l-5.827,-0l-0,21.086l6.247,-0Zm68.707,-0l0,-12.199c0,-2.977 1.257,-3.899 4.108,-3.899c3.018,-0 3.94,1.048 3.94,3.983l0,12.115l6.288,-0l0,-12.115c0,-3.061 1.216,-3.983 4.067,-3.983c3.06,-0 3.94,1.048 3.94,3.983l0,12.115l6.288,-0l0,-13.373c0,-4.485 -2.222,-8.133 -7.671,-8.133c-3.899,-0 -5.995,1.803 -7.169,4.109l-0.209,-0c-1.048,-2.474 -3.228,-4.109 -6.833,-4.109c-3.605,-0 -5.785,1.719 -6.917,4.109l-0.252,-0l0,-3.689l-5.826,-0l0,21.086l6.246,-0Zm94.781,-0l2.306,-6.247l11.905,-0l2.264,6.247l6.833,-0l-10.355,-28.087l-9.138,-0l-10.355,28.087l6.54,-0Zm-31.524,-0l0,-28.087l-6.246,-0l0,28.087l6.246,-0Zm62.419,-0l0,-28.087l-6.288,-0l0,28.087l6.288,-0Zm-87.068,-8.846l0,-3.395c0,-2.851 1.677,-3.899 4.653,-3.899c3.647,-0 4.611,1.761 4.611,5.618c0,3.814 -1.006,5.575 -4.611,5.575c-2.976,-0 -4.653,-1.048 -4.653,-3.899Zm62.126,-7.378l2.138,-6.33l0.419,-0l2.054,6.33l1.593,4.36l-7.797,-0l1.593,-4.36Zm-24.188,-0.125c2.934,-0 4.359,1.215 4.234,3.395l-8.678,-0c0.252,-2.222 1.425,-3.395 4.444,-3.395Zm-164.788,-0c2.934,-0 4.359,1.215 4.234,3.395l-8.678,-0c0.252,-2.222 1.426,-3.395 4.444,-3.395Zm68.707,-0c2.934,-0 4.36,1.215 4.234,3.395l-8.678,-0c0.252,-2.222 1.426,-3.395 4.444,-3.395Z" style="fill:#fff;fill-rule:nonzero;"/><path d="M238.323,338.67c7.174,0 11.21,-5.082 11.21,-12.892c0,-7.773 -4.036,-12.892 -11.21,-12.892c-7.212,0 -11.248,5.119 -11.248,12.892c0,7.81 4.036,12.892 11.248,12.892Zm48.579,0c7.586,0 10.538,-3.662 10.538,-8.782c0,-4.97 -2.952,-8.071 -8.483,-8.071c-3.401,0 -5.568,1.046 -6.539,1.943l-0.15,0l0.411,-5.456l13.415,0l0,-5.045l-18.385,0l-0.747,13.901l4.97,0.673c0.822,-0.486 2.653,-1.27 5.157,-1.27c3.512,0 4.857,0.896 4.857,3.512c0,2.541 -1.233,3.475 -4.783,3.475c-3.325,0 -4.82,-0.597 -4.82,-2.428l0,-0.299l-5.568,0l0,0.299c0,4.633 3.363,7.548 10.127,7.548Zm-13.901,-0.374l-0,-5.044l-9.567,0l-4.035,0.074c-0,-1.196 1.532,-1.98 3.587,-2.914l3.774,-1.645c3.251,-1.457 6.315,-3.662 6.315,-7.997c-0,-4.521 -2.653,-7.884 -9.267,-7.884c-7.436,0 -10.426,3.998 -10.426,8.856l-0,0.598l5.605,0l-0,-0.635c-0,-2.691 0.748,-3.7 4.373,-3.7c3.325,0 4.147,1.009 4.147,2.803c-0,1.644 -0.784,2.466 -2.989,3.512l-4.335,2.056c-3.475,1.681 -6.763,3.699 -6.763,8.557l-0,3.363l19.581,0Zm-49.7,-0l-0,-5.044l-9.567,-0l-4.035,0.074c-0,-1.196 1.532,-1.98 3.587,-2.914l3.774,-1.645c3.251,-1.457 6.315,-3.662 6.315,-7.997c-0,-4.521 -2.653,-7.884 -9.267,-7.884c-7.436,-0 -10.426,3.998 -10.426,8.856l-0,0.598l5.605,-0l-0,-0.635c-0,-2.691 0.748,-3.7 4.373,-3.7c3.325,-0 4.147,1.009 4.147,2.803c-0,1.644 -0.784,2.466 -2.989,3.512l-4.335,2.056c-3.475,1.681 -6.763,3.699 -6.763,8.557l-0,3.363l19.581,-0Zm15.022,-5.044c-3.849,-0 -5.269,-1.533 -5.269,-7.474c-0,-5.942 1.42,-7.474 5.269,-7.474c3.811,-0 5.231,1.532 5.231,7.474c-0,5.941 -1.42,7.474 -5.231,7.474Z" style="fill:#e82e89;fill-rule:nonzero;"/><path d="M247.122,209.086l-18.771,0.98l-29.326,-3.424l-18.522,3.169l-1.738,0l-15.849,26.641l2.684,28.508l0,77.28l-11.04,0l0,11.04l-11.04,0l0,-11.04l11.04,0l0,-22.08l-11.04,0l0,-44.16l-11.04,0l0,-37.492l1.167,-11.318l3.869,-12.808l-6.119,12.084l-1.61,9.643l-8.75,5.402l-10.637,14.902l0,19.587l11.04,0l-0,11.04l11.04,0l-0,11.04l8.4,0l-0,11.04l-19.44,0l-0,-11.04l-22.08,0l-0,-22.08l-11.04,0l-0,-22.08l0.222,0l-0.222,-0.424l7.279,-19.703l4.56,-4.829l6.626,-10.757l11.766,-9.653l-12.702,8.198l-7.521,10.084l-10.008,5.004l-0,11.04l-11.04,0l-0,44.16l11.04,0l-0,33.12l-11.04,0l-0,-33.12l-11.04,0l-0,-11.04l-11.04,0l-0,-44.16l11.04,0l-0,-11.04l11.04,0l-0,-11.04l5.52,0l64.355,-36.776l16.505,-45.983l11.14,-2.763l30.92,-17.988l49.853,-2.349l40.166,33.309l-15.087,24.146l-46.351,5.037l-20.504,-1.917l0.257,2.483l16.653,11.657l37.775,5.118l18.558,3.946l22.135,3.497l4.616,7.543l17.409,0l-0,11.04l33.12,0l-0,11.04l-55.145,0l-0.055,-11.04l-11.04,0l-0,-4.323l-19.44,-2.916l-0,-4.717l-15.364,-3.903l-20.78,-1.257l20.682,3.038l12.822,3.038l-0,11.04l11.04,0l-0,11.04l-11.04,0l-0,11.04l-55.2,0l-0,-11.04l44.16,0l-0,-11.04l-11.04,0l-6.798,-0.674Zm-59.442,111.074l-11.04,0l-0,11.04l11.04,0l-0,-11.04Zm-110.4,0l-11.04,0l-0,11.04l11.04,0l-0,-11.04Zm90.96,-11.04l-0,11.04l8.4,0l-0,-11.04l-8.4,0Zm69.976,-189.238l-0,-2.188l5.047,-2.914l5.047,2.914l-0,5.828l-1.621,0.936l7.43,13.537l1.677,-0.969l5.839,3.372l-0,6.743l-5.839,3.371l-5.84,-3.371l-0,-0.14l-23.605,5.752l-0,3.054l-5.216,3.011l-5.216,-3.011l-0,-3.368l-35.049,-11.491l-4.074,2.352l-4.78,-2.76l-0,-5.52l4.78,-2.76l3.153,1.82l21.748,-9.042l-0,-4.819l5.211,-3.008l5.211,3.008l-0,2.119l26.097,-2.456Zm-17.081,29.273l3.152,1.82l-0,3.64l-3.152,1.82l-3.152,-1.82l-0,-3.64l3.152,-1.82Zm9.516,-9.754l-0,0.821l-5.189,2.995l-0.444,-0.257l-1.385,5.254l2.718,1.569l-0,0.846l23.605,-5.752l-0,-1.312l-19.305,-4.164Zm-10.377,-1.101l-38.697,0.309l-0,0.398l34.342,11.26l-0,-0.484l5.216,-3.011l0.646,0.372l1.385,-5.253l-2.892,-1.669l-0,-1.922Zm35.522,1.11l3.775,2.179l-0,4.36l-3.775,2.18l-3.776,-2.18l-0,-4.36l3.776,-2.179Zm-15.494,-14.684l-9.951,9.331l0.3,0.174l-0,3.059l19.305,4.164l-0,-1.056l2.375,-1.371l-7.43,-13.537l-1.638,0.946l-2.961,-1.71Zm-14.84,8.892l3.125,1.804l-0,3.608l-3.125,1.804l-3.124,-1.804l-0,-3.608l3.124,-1.804Zm-22.722,-6.779l-21.163,8.8l-0,0.906l38.697,-0.309l-0,-1.552l-10.008,-7.377l-3.358,1.938l-4.168,-2.406Zm35.476,-4.884l-26.097,2.456l-0,1.698l9.761,7.194l3.582,-2.068l3.021,1.744l9.952,-9.331l-0.219,-0.126l-0,-1.567Zm-31.308,-2.361l3.147,1.817l-0,3.634l-3.147,1.817l-3.147,-1.817l-0,-3.634l3.147,-1.817Zm36.355,-2.431l2.983,1.722l-0,3.445l-2.983,1.723l-2.983,-1.723l-0,-3.445l2.983,-1.722Z" style="fill:#e82e89;"/></svg>