<?xml version="1.0" encoding="UTF-8" standalone="no"?><!DOCTYPE svg PUBLIC "-//W3C//DTD SVG 1.1//EN" "http://www.w3.org/Graphics/SVG/1.1/DTD/svg11.dtd"><svg width="100%" height="100%" viewBox="0 0 480 480" version="1.1" xmlns="http://www.w3.org/2000/svg" xmlns:xlink="http://www.w3.org/1999/xlink" xml:space="preserve" xmlns:serif="http://www.serif.com/" style="fill-rule:evenodd;clip-rule:evenodd;stroke-linejoin:round;stroke-miterlimit:2;"><rect id="LOGO_ROK_biale" x="0" y="0" width="480" height="480" style="fill:none;"/><path d="M385.966,314.168c17.243,0 23.234,-8.419 23.234,-19.186c0,-10.2 -5.91,-17.082 -17.567,-17.082c-6.881,0 -11.01,2.105 -12.791,3.482l-0.567,-0l0.567,-8.582l27.444,0l-0,-13.681l-40.963,0l-1.376,31.572l13.6,1.619c1.7,-0.728 4.776,-1.7 8.824,-1.7c5.586,0 7.852,0.729 7.852,4.939c0,3.723 -2.266,4.776 -7.528,4.776c-5.667,-0 -7.61,-0.648 -7.61,-3.238l-0,-1.215l-15.058,0l0,1.296c0,10.443 7.691,17 21.939,17Zm-100.059,0c16.514,0 25.176,-11.253 25.176,-27.929c0,-16.596 -8.662,-27.929 -25.176,-27.929c-16.596,-0 -25.177,11.333 -25.177,27.929c-0,16.676 8.581,27.929 25.177,27.929Zm-28.577,-0.81l-0,-13.681l-20.239,0l-7.772,0.81c0,-1.457 0.486,-2.51 3.643,-3.562l10.12,-3.4c7.124,-2.429 14.733,-7.205 14.733,-17.567c0,-9.877 -6.476,-17.648 -21.453,-17.648c-17.324,-0 -23.962,8.904 -23.962,19.752l0,1.296l15.219,-0l0,-1.458c0,-4.209 1.053,-5.747 7.529,-5.747c5.829,-0 7.448,1.052 7.448,4.128c-0,2.429 -0.971,3.239 -3.319,4.372l-14.41,7.043c-7.043,3.4 -11.981,7.043 -11.981,17.162l-0,8.5l44.444,0Zm102.164,0l0,-13.681l-20.239,0l-7.771,0.81c-0,-1.457 0.486,-2.51 3.643,-3.562l10.119,-3.4c7.124,-2.429 14.734,-7.205 14.734,-17.567c-0,-9.877 -6.477,-17.648 -21.453,-17.648c-17.324,-0 -23.963,8.904 -23.963,19.752l0,1.296l15.22,-0l-0,-1.458c-0,-4.209 1.052,-5.747 7.529,-5.747c5.828,-0 7.447,1.052 7.447,4.128c0,2.429 -0.971,3.239 -3.319,4.372l-14.41,7.043c-7.043,3.4 -11.981,7.043 -11.981,17.162l0,8.5l44.444,0Zm-73.587,-14.005c-7.043,0 -8.824,-1.862 -8.824,-13.114c-0,-11.253 1.781,-13.115 8.824,-13.115c6.962,0 8.824,1.862 8.824,13.115c-0,11.252 -1.862,13.114 -8.824,13.114Z" style="fill:#fff;fill-rule:nonzero;"/><path d="M274.503,216.855l-20.158,1.052l-31.492,-3.676l-19.89,3.402l-1.866,-0l-17.02,28.609l2.882,30.614c0,-0 0,82.987 0,82.987l-11.855,0l-0,11.856l-11.855,-0l-0,-11.856l11.855,0l-0,-23.711l-11.855,0l-0,-47.421l-11.856,-0l0,-40.261l1.253,-12.154l4.155,-13.754l-6.571,12.976l-1.729,10.356l-9.396,5.801l-11.423,16.002l0,21.034l11.856,-0l-0,11.855l11.855,0l0,11.856l9.021,-0l-0,11.855l-20.876,0l-0,-11.855l-23.711,-0l0,-23.711l-11.855,-0l-0,-23.711l0.238,0l-0.238,-0.456l7.816,-21.157l4.897,-5.186c0,-0 7.115,-11.552 7.115,-11.552l12.636,-10.365l-13.641,8.803l-8.076,10.829l-10.747,5.373l-0,11.856l-11.856,-0l0,47.421l11.856,0l-0,35.566l-11.856,0l0,-35.566l-11.855,0l-0,-11.855l-11.856,-0l0,-47.422l11.856,0l-0,-11.855l11.855,-0l0,-11.855l5.928,-0c-0,-0 69.108,-39.493 69.108,-39.493l17.724,-49.379l11.963,-2.967l33.203,-19.317l53.535,-2.522l43.133,35.769l-16.201,25.929l-49.774,5.409l-22.019,-2.058l0.276,2.666l17.883,12.518l40.565,5.496l19.929,4.238l23.77,3.755l4.957,8.1l18.694,0l0,11.856l35.566,-0l0,11.855l-59.217,-0l-0.06,-11.855l-11.855,-0l0,-4.643l-20.876,-3.131l0,-5.065l-16.498,-4.192l-22.315,-1.349l22.21,3.261l13.768,3.263l0,11.856l11.856,-0l-0,11.855l-11.856,-0l0,11.855l-59.277,0l0,-11.855l47.422,-0l-0,-11.855l-11.855,-0l-7.3,-0.724Zm-63.833,119.277l-11.855,0l-0,11.856l11.855,-0l0,-11.856Zm-118.554,0l-11.855,0l-0,11.856l11.855,-0l0,-11.856Zm97.678,-11.855l0,11.855l9.021,0l-0,-11.855l-9.021,0Zm75.145,-203.215l-0,-2.35l5.42,-3.129l5.42,3.129l-0,6.259l-1.742,1.005l7.979,14.537l1.801,-1.04l6.27,3.62l0,7.241l-6.27,3.621l-6.271,-3.621l-0,-0.15l-25.348,6.177l-0,3.279l-5.602,3.234l-5.601,-3.234l-0,-3.616l-37.638,-12.34l-4.374,2.526l-5.134,-2.964l0,-5.928l5.134,-2.963l3.385,1.954l23.354,-9.71l0,-5.174l5.596,-3.231l5.596,3.231l0,2.275l28.025,-2.638Zm-18.343,31.435l3.385,1.955c0,-0 0,3.909 0,3.909c0,-0 -3.385,1.954 -3.385,1.954c0,-0 -3.385,-1.954 -3.385,-1.954c0,-0 0,-3.909 0,-3.909l3.385,-1.955Zm10.219,-10.474l-0,0.881l-5.572,3.217l-0.477,-0.276l-1.487,5.642l2.919,1.685l-0,0.908l25.348,-6.177l-0,-1.408l-20.731,-4.472Zm-11.143,-1.183l-41.556,0.332l0,0.428l36.879,12.091l-0,-0.519l5.601,-3.234l0.693,0.4l1.488,-5.641l-3.105,-1.793l-0,-2.064Zm38.145,1.192l4.054,2.341c-0,0 -0,4.682 -0,4.682c-0,-0 -4.054,2.34 -4.054,2.34c-0,0 -4.055,-2.34 -4.055,-2.34c0,-0 0,-4.682 0,-4.682l4.055,-2.341Zm-16.638,-15.768l-10.687,10.021l0.323,0.186l-0,3.285l20.731,4.471l-0,-1.134l2.55,-1.472l-7.979,-14.536l-1.758,1.015l-3.18,-1.836Zm-15.936,9.549l3.355,1.937c0,0 0,3.874 0,3.874c0,0 -3.355,1.938 -3.355,1.938c0,-0 -3.355,-1.938 -3.355,-1.938c0,0 0,-3.874 0,-3.874l3.355,-1.937Zm-24.4,-7.28l-22.727,9.45l0,0.973l41.556,-0.332l-0,-1.667l-10.748,-7.921l-3.606,2.081l-4.475,-2.584Zm38.096,-5.245l-28.025,2.638l0,1.823l10.482,7.726l3.847,-2.221l3.244,1.873l10.686,-10.02l-0.234,-0.136l-0,-1.683Zm-33.621,-2.535l3.38,1.951c-0,0 -0,3.903 -0,3.903c-0,-0 -3.38,1.951 -3.38,1.951c0,0 -3.379,-1.951 -3.379,-1.951c-0,-0 -0,-3.903 -0,-3.903l3.379,-1.951Zm39.041,-2.611l3.203,1.85c0,0 0,3.699 0,3.699c0,0 -3.203,1.85 -3.203,1.85c-0,-0 -3.204,-1.85 -3.204,-1.85c-0,0 -0,-3.699 -0,-3.699l3.204,-1.85Z" style="fill:#fff;"/><g id="yyyyyyyyyyy-0" serif:id="yyyyyyyyyyy 0"></g><g id="xxxxxxxxxxx-0" serif:id="xxxxxxxxxxx 0"></g><g id="xyxyxyxyxy-1" serif:id="xyxyxyxyxy 1"></g><g id="zzzzzzzzzzzz-0" serif:id="zzzzzzzzzzzz 0"></g><g id="zzzzzzzzzzzz-2" serif:id="zzzzzzzzzzzz 2"></g></svg>