<?xml version="1.0" encoding="UTF-8" standalone="no"?><!DOCTYPE svg PUBLIC "-//W3C//DTD SVG 1.1//EN" "http://www.w3.org/Graphics/SVG/1.1/DTD/svg11.dtd"><svg width="100%" height="100%" viewBox="0 0 480 480" version="1.1" xmlns="http://www.w3.org/2000/svg" xmlns:xlink="http://www.w3.org/1999/xlink" xml:space="preserve" xmlns:serif="http://www.serif.com/" style="fill-rule:evenodd;clip-rule:evenodd;stroke-linejoin:round;stroke-miterlimit:2;"><path d="M238.353,338.7c7.174,0 11.209,-5.081 11.209,-12.89c-0,-7.771 -4.035,-12.89 -11.209,-12.89c-7.211,0 -11.246,5.119 -11.246,12.89c0,7.809 4.035,12.89 11.246,12.89Zm-15.02,-0.373l0,-5.044l-9.564,-0l-4.035,0.074c-0,-1.195 1.531,-1.98 3.586,-2.914l3.774,-1.644c3.25,-1.457 6.314,-3.661 6.314,-7.995c0,-4.521 -2.653,-7.884 -9.266,-7.884c-7.435,0 -10.424,3.998 -10.424,8.855l0,0.598l5.605,-0l-0,-0.635c-0,-2.69 0.747,-3.699 4.371,-3.699c3.325,-0 4.147,1.009 4.147,2.802c0,1.644 -0.784,2.466 -2.989,3.512l-4.334,2.055c-3.475,1.681 -6.762,3.699 -6.762,8.556l-0,3.363l19.577,-0Zm49.692,-0l0,-5.044l-9.564,-0l-4.035,0.074c-0,-1.195 1.531,-1.98 3.586,-2.914l3.774,-1.644c3.25,-1.457 6.314,-3.661 6.314,-7.995c0,-4.521 -2.653,-7.884 -9.266,-7.884c-7.435,0 -10.424,3.998 -10.424,8.855l0,0.598l5.605,-0l-0,-0.635c-0,-2.69 0.747,-3.699 4.371,-3.699c3.325,-0 4.147,1.009 4.147,2.802c0,1.644 -0.784,2.466 -2.989,3.512l-4.334,2.055c-3.475,1.681 -6.762,3.699 -6.762,8.556l-0,3.363l19.577,-0Zm21.334,-0l0,-4.745l3.587,-0l0,-5.044l-3.587,-0l0,-15.244l-6.501,-0l-13.226,16.364l0,3.924l14.123,-0l0,4.745l5.604,-0Zm-56.006,-5.044c-3.848,-0 -5.268,-1.532 -5.268,-7.473c0,-5.94 1.42,-7.472 5.268,-7.472c3.811,-0 5.231,1.532 5.231,7.472c-0,5.941 -1.42,7.473 -5.231,7.473Zm43.341,-4.745l-0,-0.374l6.725,-8.07l0.336,-0l0,8.444l-7.061,-0Z" style="fill:#ee3b96;fill-rule:nonzero;"/><path d="M256.758,304.576c5.281,-0 8.844,-3.395 8.844,-8.257l0,-0.294l-2.976,0l0,0.252c0,3.604 -1.928,5.574 -5.993,5.574c-4.737,0 -6.707,-2.976 -6.707,-8.047c0,-5.114 1.97,-8.089 6.707,-8.089c4.065,-0 5.993,1.97 5.993,5.574l0,0.252l2.976,-0l0,-0.294c0,-4.862 -3.563,-8.257 -8.844,-8.257c-6.119,0 -9.807,4.485 -9.807,10.814c-0,6.287 3.688,10.772 9.807,10.772Zm38.477,-0.042c3.94,-0 6.58,-1.886 7.796,-4.275l0.209,0.041l0,3.815l2.725,-0l-0,-12.952c-0,-4.61 -2.515,-8.173 -8.048,-8.173c-5.365,0 -8.676,3.437 -8.676,7.754l0,0.336l2.892,-0l0,-0.629c0,-3.311 1.761,-4.778 5.533,-4.778c3.898,-0 5.449,1.467 5.449,5.113l-0,1.509l-7.293,1.006c-4.527,0.629 -7.209,2.221 -7.209,5.826c-0,3.479 2.85,5.407 6.622,5.407Zm-62.703,-0c3.94,-0 6.581,-1.886 7.796,-4.275l0.21,0.041l-0,3.815l2.724,-0l0,-12.952c0,-4.61 -2.515,-8.173 -8.047,-8.173c-5.365,0 -8.676,3.437 -8.676,7.754l-0,0.336l2.892,-0l-0,-0.629c-0,-3.311 1.76,-4.778 5.532,-4.778c3.898,-0 5.449,1.467 5.449,5.113l0,1.509l-7.293,1.006c-4.526,0.629 -7.209,2.221 -7.209,5.826c0,3.479 2.85,5.407 6.622,5.407Zm124.148,-0c6.035,-0 9.891,-4.485 9.891,-10.772c0,-6.287 -3.856,-10.772 -9.891,-10.772c-6.078,0 -10.059,4.485 -10.059,10.772c-0,6.287 3.981,10.772 10.059,10.772Zm-38.686,-0.377c1.509,-0 2.808,-0.21 3.52,-0.336l0,-2.431l-2.724,0c-2.682,0 -3.814,-0.545 -3.814,-2.976l-0,-12.406l6.538,0l0,-2.599l-6.538,0l-0,-5.281l-2.263,0l-0.713,5.281l-3.521,0l0,2.599l3.479,0l0,12.239c0,4.401 2.222,5.91 6.036,5.91Zm-110.903,-0.042l0,-11.904c0,-4.652 2.18,-6.58 6.329,-6.58c4.191,-0 5.7,1.97 5.7,6.454l0,12.03l2.976,-0l0,-12.784c0,-4.736 -2.305,-8.341 -7.712,-8.341c-4.191,0 -6.329,2.306 -7.125,4.275l-0.168,0l0,-11.232l-3.018,-0l0,28.082l3.018,-0Zm166.145,-0l-0,-11.946c-0,-4.61 2.221,-6.538 6.328,-6.538c4.234,-0 5.701,1.97 5.701,6.454l-0,12.03l2.976,-0l-0,-12.7c-0,-4.988 -2.431,-8.425 -7.754,-8.425c-4.276,0 -6.623,2.515 -7.419,4.695l-0.126,-0l0,-4.276l-2.724,0l-0,20.706l3.018,-0Zm-45.56,-0l-0,-11.904c-0,-4.652 2.179,-6.58 6.329,-6.58c4.191,-0 5.7,1.97 5.7,6.454l-0,12.03l2.976,-0l-0,-12.784c-0,-4.736 -2.306,-8.341 -7.712,-8.341c-4.192,0 -6.329,2.306 -7.126,4.275l-0.167,0l-0,-11.232l-3.018,-0l-0,28.082l3.018,-0Zm-55.326,-0l0,-9.305l5.197,-0l6.12,9.305l3.52,-0l-7.209,-10.898l7.377,-9.808l-3.521,0l-6.287,8.676l-5.197,0l0,-16.052l-3.018,-0l0,28.082l3.018,-0Zm19.196,-5.198c0,-2.221 1.216,-2.892 4.527,-3.353l7.042,-1.006l-0,0.713c-0,4.904 -3.479,6.748 -7.042,6.748c-3.185,-0 -4.527,-0.964 -4.527,-3.102Zm-62.702,0c0,-2.221 1.216,-2.892 4.527,-3.353l7.041,-1.006l0,0.713c0,4.904 -3.479,6.748 -7.041,6.748c-3.186,-0 -4.527,-0.964 -4.527,-3.102Zm127.836,2.934c-5.072,0 -7.084,-2.934 -7.084,-8.089c0,-5.155 2.012,-8.047 7.084,-8.047c4.987,-0 6.957,2.892 6.957,8.047c0,5.155 -1.97,8.089 -6.957,8.089Zm-143.218,-31.174c6.035,-0 9.891,-2.641 9.891,-7.125l0,-0.419l-6.203,-0l0,0.251c0,1.299 -1.089,1.844 -3.604,1.844c-3.437,0 -4.611,-1.173 -4.736,-4.107l14.46,-0c0.125,-0.713 0.293,-1.928 0.293,-3.102c0,-5.491 -3.73,-9.263 -10.059,-9.263c-6.581,0 -10.604,4.275 -10.604,11.023c-0,6.665 3.311,10.898 10.562,10.898Zm164.761,-0c6.036,-0 9.892,-2.641 9.892,-7.125l-0,-0.419l-6.203,-0l-0,0.251c-0,1.299 -1.09,1.844 -3.605,1.844c-3.437,0 -4.61,-1.173 -4.736,-4.107l14.46,-0c0.126,-0.713 0.293,-1.928 0.293,-3.102c0,-5.491 -3.73,-9.263 -10.059,-9.263c-6.58,0 -10.604,4.275 -10.604,11.023c0,6.665 3.311,10.898 10.562,10.898Zm-117.776,-0c5.826,-0 9.053,-2.515 9.053,-6.455c0,-3.437 -1.844,-5.448 -6.287,-6.287l-3.856,-0.796c-2.515,-0.503 -2.892,-0.796 -2.892,-1.802c-0,-1.006 0.587,-1.551 3.102,-1.551c2.682,-0 3.269,0.754 3.269,2.137l-0,0.587l5.993,0l0,-0.587c0,-4.736 -3.939,-7.167 -9.095,-7.167c-5.993,0 -9.179,2.767 -9.179,6.664c0,3.898 2.264,5.659 6.413,6.413l3.185,0.587c2.809,0.503 3.395,0.754 3.395,1.886c0,1.048 -0.419,1.425 -2.976,1.425c-3.059,0 -3.981,-0.335 -3.981,-1.886l-0,-0.88l-5.994,-0l0,0.126c0,5.113 3.227,7.586 9.85,7.586Zm21.711,-0c6.035,-0 9.891,-2.641 9.891,-7.125l0,-0.419l-6.203,-0l0,0.251c0,1.299 -1.09,1.844 -3.604,1.844c-3.437,0 -4.611,-1.173 -4.737,-4.107l14.461,-0c0.125,-0.713 0.293,-1.928 0.293,-3.102c-0,-5.491 -3.73,-9.263 -10.059,-9.263c-6.581,0 -10.604,4.275 -10.604,11.023c-0,6.665 3.311,10.898 10.562,10.898Zm57.547,-0.419l-0,-3.102l0.209,0c1.132,2.264 3.647,3.521 6.916,3.521c5.742,-0 8.802,-4.317 8.802,-10.939c-0,-6.665 -3.06,-10.982 -8.844,-10.982c-3.185,0 -5.449,1.593 -6.413,3.353l-0.251,0l-0,-9.933l-6.245,-0l-0,28.082l5.826,-0Zm25.064,-0l0,-28.082l-6.245,-0l-0,28.082l6.245,-0Zm62.409,-0l-0,-28.082l-6.287,-0l-0,28.082l6.287,-0Zm-194.352,-0l-0,-11.946c-0,-3.185 1.299,-4.149 4.317,-4.149c3.185,0 4.149,1.048 4.149,3.982l0,12.113l6.287,-0l0,-13.371c0,-4.484 -2.347,-8.131 -7.837,-8.131c-3.689,0 -5.952,1.719 -7.084,4.108l-0.251,-0l-0,-3.689l-5.826,0l-0,21.083l6.245,-0Zm68.696,-0l-0,-12.197c-0,-2.976 1.257,-3.898 4.107,-3.898c3.018,0 3.94,1.048 3.94,3.982l0,12.113l6.287,-0l0,-12.113c0,-3.06 1.216,-3.982 4.066,-3.982c3.059,0 3.94,1.048 3.94,3.982l-0,12.113l6.287,-0l-0,-13.371c-0,-4.484 -2.222,-8.131 -7.671,-8.131c-3.897,0 -5.993,1.803 -7.167,4.108l-0.209,-0c-1.048,-2.473 -3.228,-4.108 -6.832,-4.108c-3.605,0 -5.784,1.719 -6.916,4.108l-0.251,-0l-0,-3.689l-5.826,0l-0,21.083l6.245,-0Zm94.766,-0l2.305,-6.245l11.903,-0l2.264,6.245l6.832,-0l-10.353,-28.082l-9.137,-0l-10.353,28.082l6.539,-0Zm-56.164,-8.844l-0,-3.395c-0,-2.85 1.677,-3.898 4.652,-3.898c3.647,0 4.611,1.76 4.611,5.617c-0,3.814 -1.006,5.574 -4.611,5.574c-2.975,-0 -4.652,-1.048 -4.652,-3.898Zm62.116,-7.377l2.137,-6.329l0.419,0l2.054,6.329l1.593,4.359l-7.796,0l1.593,-4.359Zm-188.946,-0.125c2.934,-0 4.359,1.215 4.233,3.395l-8.676,-0c0.252,-2.222 1.425,-3.395 4.443,-3.395Zm68.696,-0c2.934,-0 4.359,1.215 4.233,3.395l-8.676,-0c0.252,-2.222 1.425,-3.395 4.443,-3.395Zm96.066,-0c2.934,-0 4.359,1.215 4.233,3.395l-8.676,-0c0.251,-2.222 1.425,-3.395 4.443,-3.395Z" style="fill:#fff;fill-rule:nonzero;"/><path d="M273.599,98.612l-57.174,0l-35.425,17.148l-30.692,-0.607l-33.037,35.251l-11.548,52.355l-9.464,24.268l0.651,11.243l-41.979,15.368l-0.131,3.908l42.935,-5.253l1.824,31.821l22.227,35.294l39.896,11.765l19.883,-22.053l-17.148,-19.189l-10.419,8.856l6.034,10.246l-25.353,-14.326l-4.124,-39.072l6.816,-8.856l47.233,-28.652l9.247,-33.862l-5.47,34.947l11.851,17.322l27.35,-0l0,-9.204l46.017,0l0,-9.203l-36.813,0l-0,-9.203l92.034,-0l0,-9.204l-73.628,0.044l0,-9.204l36.814,0l0,-9.203l27.611,-0l-0,-9.204l-27.611,0l0,-9.16l18.407,0l0,-9.203l18.407,-0l0,-9.204l-55.221,0l0,-9.203l46.018,-0l-0,-9.16l-18.407,-0l-0,-9.204l-36.814,0l-0,-9.203l9.203,-0l0,-9.204Zm36.814,119.645l-27.61,0l-0,9.204l27.61,-0l0,-9.204Zm-152.421,-80.704l-8.379,5.47l-5.036,-2.908l-6.685,3.863l-0,7.728l2.908,1.65l-9.68,22.748l-1.477,-0.869l-6.685,3.864l-0,7.728l6.685,3.82l6.686,-3.82l0,-0.695l20.968,5.774l0,4.298l6.642,3.82l6.642,-3.82l0,-7.684l-1.693,-0.999l9.812,-14.065l2.604,1.476l6.469,-3.734l-0,-7.467l-6.469,-3.733l-1.649,0.955l-9.768,-20.534l3.126,-1.824l-0,-8.682l-7.511,-4.298l-7.51,4.298l-0,7.64Zm5.947,49.881l4.255,2.475l-0,4.906l-4.255,2.474l-4.254,-2.474l-0,-4.906l4.254,-2.475Zm-13.761,-17.061l-13.849,9.551l0,3.516l20.968,5.731l0,-0.651l3.256,-1.867l-4.992,-14.239l-0.955,0.521l-4.428,-2.562Zm-20.535,7.641l4.298,2.474l0,4.949l-4.298,2.475l-4.297,-2.475l-0,-4.949l4.297,-2.474Zm31.214,-8.683l-2.995,1.737l4.992,14.239l1.085,-0.608l2.692,1.52l9.811,-14.066l-1.606,-0.955l-0,-2.822l-13.979,-0.911l0,1.866Zm177.166,2.909l-9.203,0l0,9.203l9.203,0l0,-9.203Zm-193.446,-16.67l-1.519,-0.869l-9.638,22.705l1.086,0.608l13.892,-9.551l-0,-6.295l2.04,-1.215l-3.733,-6.642l-2.128,1.259Zm36.727,7.206l4.081,2.344l0,4.732l-4.081,2.345l-4.08,-2.345l-0,-4.732l4.08,-2.344Zm-15.802,-19.839l-1.346,-0.782l-6.294,18.277l2.995,1.736l0,2.692l13.979,0.912l-0,-2.041l2.561,-1.476l-9.768,-20.534l-2.127,1.216Zm-9.941,16.149l6.295,-18.277l-2.171,-1.215l-8.422,5.47l-0,6.642l-2.301,1.302l3.734,6.642l1.91,-1.085l0.955,0.521Zm200.869,-14.456l-18.407,-0l0,9.203l18.407,0l0,-9.203Zm-211.853,-1.78l4.298,2.518l0,4.949l-4.298,2.474l-4.297,-2.474l-0,-4.949l4.297,-2.518Zm20.925,-14.5l5.123,2.952l-0,5.904l-5.123,2.952l-5.122,-2.952l-0,-5.904l5.122,-2.952Zm190.928,-2.127l-27.61,-0l0,9.203l27.61,0l0,-9.203Zm-55.22,-27.611l-18.407,0l-0,9.204l18.407,-0l-0,-9.204Z" style="fill:#ee3b96;"/></svg>